<?xml version="1.0" standalone="no"?><!DOCTYPE svg PUBLIC "-//W3C//DTD SVG 1.1//EN" "http://www.w3.org/Graphics/SVG/1.1/DTD/svg11.dtd"><svg t="1602587854448" class="icon" viewBox="0 0 1024 1024" version="1.1" xmlns="http://www.w3.org/2000/svg" p-id="9339" xmlns:xlink="http://www.w3.org/1999/xlink" width="128" height="128"><defs><style type="text/css"></style></defs><path d="M414.048 690.624c8.672 8.672 20.672 14.048 33.952 14.048s25.248-5.376 33.952-14.048l271.328-289.152c8.672-8.672 14.048-20.672 14.048-33.952 0-26.528-21.504-48.032-48-48.032-13.248 0-25.248 5.376-33.952 14.08L448 606.304l-110.048-144.256C329.248 453.376 317.248 448 304 448 277.472 448 256 469.504 256 496c0 13.248 5.376 25.248 14.048 33.952L414.048 690.624zM976 0l-928 0C21.472 0 0 21.504 0 48l0 928C0 1002.496 21.472 1024 48 1024l928 0c26.496 0 48-21.504 48-48l0-928C1024 21.504 1002.496 0 976 0zM928 928 96 928 96 96l832 0L928 928z" p-id="9340" fill="#d81e06"></path></svg>