<?xml version="1.0" standalone="no"?><!DOCTYPE svg PUBLIC
        "-//W3C//DTD SVG 1.1//EN"
        "http://www.w3.org/Graphics/SVG/1.1/DTD/svg11.dtd">
<svg t="1603532919415" class="icon" viewBox="0 0 1024 1024" version="1.1"
     xmlns="http://www.w3.org/2000/svg" p-id="16637"
     width="128" height="128">
    <defs>
        <style type="text/css"></style>
    </defs>
    <path d="M512.197498 376.432395c-74.324776 0-134.573975 60.257385-134.573975 134.593418s60.249199 134.593418 134.573975 134.593418c74.340125 0 134.593418-60.253292 134.593418-134.593418S586.538647 376.432395 512.197498 376.432395zM512.197498 596.942601c-47.439452 0-85.897346-38.461987-85.897346-85.916788s38.457894-85.916788 85.897346-85.916788c47.456848 0 85.916788 38.45994 85.916788 85.916788C598.114287 558.483684 559.654346 596.942601 512.197498 596.942601z"
          p-id="16638" fill="#8a8a8a"></path>
    <path d="M512.197498 64.821331c-246.435669 0-446.205505 199.768813-446.205505 446.205505s199.768813 446.205505 446.205505 446.205505 446.205505-199.768813 446.205505-446.205505S758.63419 64.821331 512.197498 64.821331zM512.197498 908.554688c-219.552391 0-397.527852-177.975461-397.527852-397.527852S292.645107 113.49796 512.197498 113.49796s397.527852 177.975461 397.527852 397.527852S731.74989 908.554688 512.197498 908.554688z"
          p-id="16639" fill="#8a8a8a"></path>
</svg>