<?xml version="1.0" standalone="no"?><!DOCTYPE svg PUBLIC
        "-//W3C//DTD SVG 1.1//EN"
        "http://www.w3.org/Graphics/SVG/1.1/DTD/svg11.dtd">
<svg t="1603532687363" class="icon" viewBox="0 0 1024 1024" version="1.1"
     xmlns="http://www.w3.org/2000/svg" p-id="12306"
     width="128" height="128">
    <defs>
        <style type="text/css"></style>
    </defs>
    <path d="M649.216 806.4c-15.872-2.048-28.16-15.36-28.16-31.744v-80.896c0-10.24 5.12-19.968 13.312-26.112 52.736-38.4 99.328-99.84 124.928-168.96 3.072-9.216 10.752-15.872 19.456-19.456 9.728-3.584 21.504-24.064 32.256-70.656 6.144-25.088-1.024-40.96-16.384-50.176-8.704-5.12-14.336-14.336-15.36-24.576-13.824-152.576-99.84-237.568-236.032-237.568-138.24 0-227.84 88.064-240.64 242.176-1.024 10.24-6.656 19.456-14.848 24.576-16.384 10.24-22.528 23.552-16.384 44.032 11.264 38.912 24.064 60.416 36.864 68.608 6.144 3.584 10.752 9.728 13.312 16.384 25.088 70.656 72.192 133.632 126.976 173.568 8.192 6.144 13.312 15.36 12.8 25.6v83.456c0 16.384-12.288 29.696-28.16 31.744-125.952 14.336-212.992 54.272-226.816 88.576 2.048 1.024 5.12 2.048 8.192 3.072 17.408 6.144 43.52 11.776 77.312 15.872 65.536 8.704 155.136 13.824 248.832 13.824s183.296-5.12 248.832-13.824c33.792-4.608 59.904-10.24 77.312-15.872 3.072-1.024 6.144-2.048 8.192-3.072-13.312-34.304-100.864-74.24-225.792-88.576z m35.328-59.904c151.552 22.528 256 79.36 256 157.184 0 67.072-156.16 88.064-399.872 88.064s-399.872-20.992-399.872-88.064c0-78.336 104.448-134.656 256-157.184v-39.424c-56.832-45.568-104.448-111.104-132.608-184.32-24.064-19.456-40.96-51.2-54.784-97.792-12.8-43.52 0-81.408 30.208-106.496 20.48-177.664 135.168-286.208 303.104-286.208 165.376 0 276.992 105.472 297.984 281.6 29.696 25.088 42.496 64 31.744 110.08-13.312 56.832-30.72 92.672-58.88 109.568-28.672 70.656-74.752 133.12-129.536 176.64l0.512 36.352z"
          fill="#8a8a8a" p-id="12307"></path>
</svg>