<?xml version="1.0" standalone="no"?><!DOCTYPE svg PUBLIC "-//W3C//DTD SVG 1.1//EN" "http://www.w3.org/Graphics/SVG/1.1/DTD/svg11.dtd"><svg t="1603530919071" class="icon" viewBox="0 0 1024 1024" version="1.1" xmlns="http://www.w3.org/2000/svg" p-id="6883" xmlns:xlink="http://www.w3.org/1999/xlink" width="128" height="128"><defs><style type="text/css"></style></defs><path d="M392.39 841.59c-92.286 0-184.571-34.278-255.762-105.469-139.746-142.383-139.746-371.777 0-514.16 142.382-142.383 371.777-142.383 511.523 0 142.383 142.383 142.383 371.777 0 511.523-68.555 71.192-163.477 108.106-255.762 108.106z m0-661.817c-76.466 0-152.93 29.004-210.938 87.012-116.016 116.016-116.016 308.496 0 424.512 116.015 116.015 308.496 116.015 424.512 0 116.015-116.016 116.015-308.496 0-424.512-58.008-58.008-137.11-87.012-213.575-87.012z" p-id="6884" fill="#8a8a8a"></path><path d="M750.983 894.324L619.147 762.488c-15.82-15.82-15.82-42.187 0-58.008s42.188-15.82 58.008 0L808.99 836.316c15.82 15.82 15.82 42.188 0 58.008-15.82 18.457-42.188 18.457-58.008 0z" p-id="6885" fill="#8a8a8a"></path></svg>