<?xml version="1.0" standalone="no"?><!DOCTYPE svg PUBLIC "-//W3C//DTD SVG 1.1//EN" "http://www.w3.org/Graphics/SVG/1.1/DTD/svg11.dtd"><svg t="1603533120931" class="icon" viewBox="0 0 1024 1024" version="1.1" xmlns="http://www.w3.org/2000/svg" p-id="26785" xmlns:xlink="http://www.w3.org/1999/xlink" width="128" height="128"><defs><style type="text/css"></style></defs><path d="M573.371733 141.380267l2.048 0.068266 4.096 0.477867 3.618134 0.887467 3.447466 1.2288 2.8672 1.365333 3.072 1.8432 2.116267 1.570133 223.982933 201.9328a34.133333 34.133333 0 0 1-42.325333 53.3504l-3.3792-2.6624-165.410133-149.1968v420.0448a204.8 204.8 0 1 1-68.266667-152.610133L539.306667 173.397333l0.682666-4.983466 0.682667-2.730667 0.955733-2.730667 1.9456-4.096 2.184534-3.413333 2.594133-3.140267 3.072-2.935466 2.6624-2.048 3.2768-1.979734 2.389333-1.160533 2.013867-0.785067c3.720533-1.365333 7.5776-2.048 11.605333-2.048z m-170.666666 394.376533a136.533333 136.533333 0 1 0 0 273.066667 136.533333 136.533333 0 0 0 0-273.066667z" fill="#8a8a8a" p-id="26786"></path></svg>