<?xml version="1.0" standalone="no"?><!DOCTYPE svg PUBLIC "-//W3C//DTD SVG 1.1//EN" "http://www.w3.org/Graphics/SVG/1.1/DTD/svg11.dtd"><svg t="1602294221450" class="icon" viewBox="0 0 1024 1024" version="1.1" xmlns="http://www.w3.org/2000/svg" p-id="15464" xmlns:xlink="http://www.w3.org/1999/xlink" width="128" height="128"><defs><style type="text/css"></style></defs><path d="M587.18208 252.90752H106.63936a30.72 30.72 0 1 1 0-61.44h480.54272a30.72 30.72 0 1 1 0 61.44zM587.20256 567.5008h-357.7856a30.72 30.72 0 1 1 0-61.44h357.7856a30.72 30.72 0 1 1 0 61.44zM763.74016 895.1808a30.72 30.72 0 0 1-30.69952-30.72V159.55968a30.72 30.72 0 1 1 61.44 0v634.20416l101.92896-95.1296a30.72 30.72 0 0 1 41.92256 44.91264l-153.6 143.36a30.72 30.72 0 0 1-20.992 8.27392zM587.264 864.4608H355.00032a30.72 30.72 0 1 1 0-61.44h232.26368a30.72 30.72 0 1 1 0 61.44z" p-id="15465" fill="#8a8a8a"></path></svg>