<?xml version="1.0" standalone="no"?><!DOCTYPE svg PUBLIC "-//W3C//DTD SVG 1.1//EN" "http://www.w3.org/Graphics/SVG/1.1/DTD/svg11.dtd"><svg t="1605083828656" class="icon" viewBox="0 0 1024 1024" version="1.1" xmlns="http://www.w3.org/2000/svg" p-id="4971" xmlns:xlink="http://www.w3.org/1999/xlink" width="128" height="128"><defs><style type="text/css"></style></defs><path d="M749.548254 631.619378 749.575884 631.453602 749.820454 631.030977 749.923808 631.346155Z" p-id="4972" fill="#ffffff"></path><path d="M724.868155 619.191324 724.892715 619.042945 725.111702 618.664322 725.2038 618.946754Z" p-id="4973" fill="#ffffff"></path><path d="M740.257657 518.888897c0.213871-0.714268 0.403183-1.425466 0.547469-2.157129 0.146333-0.748037 0.245593-1.490957 0.317225-2.24411 0.070608-0.732687 0.112564-1.458211 0.11461-2.197038-0.001023-0.738827-0.044002-1.464351-0.11461-2.197038-0.071631-0.753153-0.170892-1.49505-0.317225-2.24411-0.144286-0.731664-0.332575-1.441838-0.547469-2.157129-0.209778-0.701988-0.435928-1.391696-0.716314-2.079358-0.310062-0.765433-0.679475-1.497097-1.072425-2.228761-0.205685-0.38067-0.330528-0.784876-0.558725-1.158383-0.138146-0.226151-0.324388-0.399089-0.469698-0.618077-0.455371-0.693802-0.974188-1.339508-1.508353-1.985214-0.465604-0.563842-0.925069-1.12359-1.434675-1.633197-0.50756-0.50756-1.066285-0.964978-1.62808-1.429559-0.647753-0.535189-1.294482-1.055029-1.990331-1.511423-0.220011-0.144286-0.391926-0.331551-0.618077-0.468674L362.969778 266.966261c-0.425695-0.260943-0.884137-0.406253-1.320065-0.635473-0.778736-0.412392-1.550309-0.822738-2.378164-1.14508-0.685615-0.267083-1.38044-0.447185-2.077312-0.645706-0.741897-0.210801-1.472538-0.431835-2.243087-0.567935-0.828878-0.147356-1.655709-0.195451-2.488681-0.25071-0.524956-0.035816-1.025353-0.157589-1.560542-0.157589-0.170892 0-0.327458 0.046049-0.49835 0.050142-0.826831 0.01842-1.636267 0.140193-2.452865 0.24764-0.711198 0.092098-1.428535 0.145309-2.118244 0.299829-0.682545 0.153496-1.334391 0.406253-2.000564 0.621147-0.760317 0.246617-1.531889 0.457418-2.25639 0.777713-0.618077 0.273223-1.189082 0.641613-1.784646 0.969071-0.700965 0.387833-1.417279 0.740874-2.070148 1.197268-0.562818 0.391926-1.065262 0.871857-1.595334 1.315972-0.618077 0.518816-1.252527 1.013073-1.814322 1.593288-0.432859 0.449231-0.801249 0.968048-1.201361 1.457188-0.575098 0.700965-1.151219 1.394766-1.641383 2.162246-0.082888 0.128937-0.193405 0.228197-0.273223 0.360204-0.252757 0.411369-0.391926 0.855484-0.615007 1.276063-0.423649 0.794086-0.841158 1.583055-1.169639 2.429329-0.264013 0.675382-0.440022 1.359974-0.636496 2.048659-0.212848 0.74906-0.436952 1.487887-0.574075 2.2656-0.146333 0.825808-0.194428 1.647523-0.249687 2.477424-0.036839 0.525979-0.157589 1.028423-0.157589 1.563612l0 450.650747c0 0.535189 0.121773 1.036609 0.157589 1.563612 0.055259 0.828878 0.103354 1.651616 0.249687 2.477424 0.137123 0.778736 0.361227 1.51654 0.574075 2.266623 0.196475 0.687662 0.372483 1.372254 0.636496 2.047636 0.328481 0.846274 0.748037 1.636267 1.169639 2.430352 0.224104 0.420579 0.36225 0.86367 0.615007 1.27504 0.080841 0.130983 0.190335 0.230244 0.273223 0.360204 0.491187 0.768503 1.066285 1.462305 1.64343 2.164293 0.400113 0.488117 0.768503 1.006933 1.200338 1.455141 0.561795 0.580215 1.196245 1.074472 1.815345 1.594311 0.529049 0.444115 1.031493 0.924045 1.594311 1.314948 0.652869 0.455371 1.369184 0.809435 2.069125 1.196245 0.595564 0.327458 1.166569 0.696872 1.785669 0.970094 0.726547 0.321318 1.50119 0.533143 2.26253 0.778736 0.664126 0.213871 1.311879 0.465604 1.9934 0.6191 0.692778 0.155543 1.413186 0.209778 2.128477 0.300852 0.813528 0.105401 1.61887 0.227174 2.442632 0.245593 0.168846 0.004093 0.328481 0.050142 0.499373 0.050142 0.536212 0 1.036609-0.121773 1.562589-0.157589 0.831948-0.055259 1.657756-0.103354 2.485611-0.25071 0.77055-0.1361 1.50119-0.357134 2.243087-0.567935 0.696872-0.198521 1.39272-0.3776 2.077312-0.645706 0.826831-0.322341 1.598404-0.731664 2.375094-1.144056 0.436952-0.230244 0.895393-0.375553 1.323135-0.636496l367.292224-225.03015c0.226151-0.138146 0.398066-0.324388 0.618077-0.468674 0.695848-0.457418 1.342578-0.976234 1.990331-1.511423 0.561795-0.464581 1.119497-0.921999 1.62808-1.429559 0.509606-0.509606 0.969071-1.069355 1.434675-1.633197 0.533143-0.645706 1.051959-1.291412 1.508353-1.985214 0.145309-0.218988 0.331551-0.39295 0.469698-0.618077 0.228197-0.373507 0.353041-0.777713 0.558725-1.158383 0.391926-0.731664 0.76134-1.462305 1.072425-2.228761C739.821729 520.281617 740.046856 519.590885 740.257657 518.888897z" p-id="4974" fill="#ffffff"></path></svg>