<?xml version="1.0" standalone="no"?><!DOCTYPE svg PUBLIC "-//W3C//DTD SVG 1.1//EN" "http://www.w3.org/Graphics/SVG/1.1/DTD/svg11.dtd"><svg t="1606045592334" class="icon" viewBox="0 0 1024 1024" version="1.1" xmlns="http://www.w3.org/2000/svg" p-id="2738" xmlns:xlink="http://www.w3.org/1999/xlink" width="128" height="128"><defs><style type="text/css"></style></defs><path d="M263.50933334 461.824c12.8 0 25.6 5.12 35.84000001 14.848l415.74399999 411.648c19.968 19.968 19.968 51.712 0.512 71.68s-51.712 19.968-71.68 0.51199999l-415.744-411.64799999a50.8416 50.8416 0 0 1-0.51199999-71.68c9.216-10.75200001 22.528-15.36 35.83999999-15.36z" fill="#8a8a8a" p-id="2739"></path><path d="M674.64533334 46.08c12.8 0 25.6 5.12 35.84 14.848 19.968 19.968 19.968 51.712 0.512 71.68l-411.648 415.744a50.8416 50.8416 0 0 1-71.68 0.512 50.8416 50.8416 0 0 1-0.512-71.67999999L638.80533334 61.43999999c9.728-10.24 23.04-15.36 35.84-15.35999999z" fill="#8a8a8a" p-id="2740"></path></svg>