<?xml version="1.0" standalone="no"?><!DOCTYPE svg PUBLIC "-//W3C//DTD SVG 1.1//EN" "http://www.w3.org/Graphics/SVG/1.1/DTD/svg11.dtd"><svg t="1602305967598" class="icon" viewBox="0 0 1024 1024" version="1.1" xmlns="http://www.w3.org/2000/svg" p-id="7150" xmlns:xlink="http://www.w3.org/1999/xlink" width="128" height="128"><defs><style type="text/css"></style></defs><path d="M777.846 119.65l-422.479 80.896c-22.016 4.333-37.809 23.592-37.77 45.923v449.339c-33.83-13.588-78.06-13.706-121.068 2.836-73.925 28.435-116.066 95.271-94.168 149.267 21.897 53.957 99.564 74.713 173.45 46.277 62.345-24.024 102.124-75.303 99.879-123.195V360.212l371.712-71.208V602.9c-33.792-13.627-78.14-13.785-121.147 2.796-73.886 28.475-115.988 95.31-94.13 149.268 21.898 53.957 99.486 74.712 173.332 46.277 61.204-23.592 100.628-73.531 99.88-120.675h0.157V142.572a23.237 23.237 0 0 0-27.57-22.922z" fill="#2c2c2c" p-id="7151"></path></svg>