<?xml version="1.0" standalone="no"?><!DOCTYPE svg PUBLIC "-//W3C//DTD SVG 1.1//EN" "http://www.w3.org/Graphics/SVG/1.1/DTD/svg11.dtd"><svg t="1603618727651" class="icon" viewBox="0 0 1160 1024" version="1.1" xmlns="http://www.w3.org/2000/svg" p-id="12766" xmlns:xlink="http://www.w3.org/1999/xlink" width="145" height="128"><defs><style type="text/css"></style></defs><path d="M595.840547 950.587175l44.232406-43.413288 132.901998-130.376382c94.642332-92.833445 160.410733-157.339038 184.950162-181.229998 78.669519-76.655852 124.301253-161.67354 132.799608-245.599071 8.361836-81.911863-20.648616-159.625744-82.082513-219.523794-60.00044-58.464593-131.84397-82.560332-209.387201-70.546592-65.80253 10.170723-134.676755 46.177813-200.001466 105.120225a28.430243 28.430243 0 0 1-38.089017 0c-65.324711-58.976542-134.198936-94.949502-200.001466-105.120225-77.543231-11.94548-149.386761 12.082-209.387201 70.546592-61.433898 59.89805-90.444349 137.577801-82.116643 219.557924 8.532486 83.8914 54.16422 168.943218 132.833738 245.599071a133597.907941 133597.907941 0 0 1 194.540676 190.410952l32.355186 31.672588L580.209033 965.945649l15.631514-15.358474z m-15.631514 15.392604l-1.979537 3.378865c0.511949-0.955638 1.228678-1.501717 1.979537-1.501718 0.682599 0 1.365198 0.477819 1.979536 1.501718l-1.979536-3.412995v0.03413zM790.551872 3.686034c95.529711-14.812395 185.189071 15.290215 257.78346 86.007456 73.720677 71.91179 109.113428 166.656512 99.010965 266.008777-9.931813 98.191846-62.048237 195.155015-149.72806 280.616392-24.471169 23.89096-90.20544 88.294163-184.574733 180.854568-42.457649 41.638531-87.611564 85.905067-133.106778 130.615293l-44.266536 43.413287-17.576921 17.235622a54.06183 54.06183 0 0 1-75.768473 0l-152.799755-150.17175-32.286927-31.604327C292.493612 763.145528 227.64672 699.766223 162.799829 636.318659 75.085875 550.857282 23.037712 453.928243 13.071768 355.736397c-10.068333-99.386394 25.256158-194.131116 99.045095-266.042907C184.711252 18.976248 274.370613-11.092232 369.900323 3.686034 440.754085 14.573486 512.631745 49.897977 580.209033 106.212383c67.577287-56.314406 139.454947-91.638897 210.342839-102.594609z" fill="#8a8a8a" p-id="12767"></path></svg>