<?xml version="1.0" standalone="no"?><!DOCTYPE svg PUBLIC "-//W3C//DTD SVG 1.1//EN" "http://www.w3.org/Graphics/SVG/1.1/DTD/svg11.dtd"><svg t="1605697054201" class="icon" viewBox="0 0 1024 1024" version="1.1" xmlns="http://www.w3.org/2000/svg" p-id="10176" xmlns:xlink="http://www.w3.org/1999/xlink" width="128" height="128"><defs><style type="text/css"></style></defs><path d="M910.222 274.489v-49.522H113.778v54.926l386.39 263.31c0.71 0.484 1.507 0.484 2.332-0.056L907.093 276.28a28.729 28.729 0 0 1 3.13-1.764z m0 67.897L534.102 590.42c-19.912 13.483-46.08 13.37-65.963-0.199L113.778 348.73v445.099h796.444V342.386zM113.778 168.02h796.444a56.889 56.889 0 0 1 56.89 56.89v568.888a56.889 56.889 0 0 1-56.89 56.889H113.778a56.889 56.889 0 0 1-56.89-56.889V224.91a56.889 56.889 0 0 1 56.89-56.889z" p-id="10177" fill="#8a8a8a"></path></svg>