<?xml version="1.0" standalone="no"?><!DOCTYPE svg PUBLIC "-//W3C//DTD SVG 1.1//EN" "http://www.w3.org/Graphics/SVG/1.1/DTD/svg11.dtd"><svg t="1603618250001" class="icon" viewBox="0 0 1024 1024" version="1.1" xmlns="http://www.w3.org/2000/svg" p-id="11686" xmlns:xlink="http://www.w3.org/1999/xlink" width="128" height="128"><defs><style type="text/css"></style></defs><path d="M761.6 595.2L544 518.4V211.2c0-19.2-19.2-38.4-38.4-38.4-19.2 6.4-38.4 19.2-38.4 38.4v326.4c0 12.8 6.4 25.6 19.2 32l236.8 89.6c6.4 0 32 12.8 51.2-19.2 12.8-19.2-6.4-44.8-12.8-44.8z" p-id="11687" fill="#8a8a8a"></path><path d="M512 0C230.4 0 0 230.4 0 512s230.4 512 512 512 512-230.4 512-512-230.4-512-512-512z m441.6 512c0 243.2-198.4 441.6-441.6 441.6S70.4 755.2 70.4 512 268.8 70.4 512 70.4c243.2 0 441.6 198.4 441.6 441.6z" p-id="11688" fill="#8a8a8a"></path></svg>