<?xml version="1.0" standalone="no"?><!DOCTYPE svg PUBLIC
        "-//W3C//DTD SVG 1.1//EN"
        "http://www.w3.org/Graphics/SVG/1.1/DTD/svg11.dtd">
<svg t="1605864313389" class="icon" viewBox="0 0 1201 1024" version="1.1"
     xmlns="http://www.w3.org/2000/svg" p-id="31879"
     width="150.125" height="128">
    <defs>
        <style type="text/css"></style>
    </defs>
    <path d="M1060.352 158.208H565.248L494.592 16.896h-353.28c-78.336 0-141.312 63.488-141.312 141.312V865.28c0 78.336 63.488 141.312 141.312 141.312H1060.352c78.336 0 141.312-63.488 141.312-141.312V300.032c0.512-78.336-62.976-141.824-141.312-141.824z m0.512 778.24H141.312c-38.912 0-70.656-31.744-70.656-70.656V158.208c0-38.912 31.744-70.656 70.656-70.656H451.072l70.656 141.312H1060.352c38.912 0 70.656 31.744 70.656 70.656v566.272h0.512c0 38.912-31.744 70.656-70.656 70.656z"
          p-id="31880" fill="#8a8a8a"></path>
    <path d="M870.4 412.16c-7.68-9.216-18.944-14.848-30.72-15.872-11.776-1.024-23.552 3.072-32.768 10.752L527.872 646.656 401.92 517.12c-17.408-17.92-46.08-18.432-64-1.024s-18.432 46.08-1.024 64l185.344 190.464L865.792 476.16c18.432-16.384 20.48-45.056 4.608-64z"
          p-id="31881" fill="#8a8a8a"></path>
</svg>