<?xml version="1.0" standalone="no"?><!DOCTYPE svg PUBLIC
        "-//W3C//DTD SVG 1.1//EN"
        "http://www.w3.org/Graphics/SVG/1.1/DTD/svg11.dtd">
<svg t="1605864718770" class="icon" viewBox="0 0 1024 1024" version="1.1"
     xmlns="http://www.w3.org/2000/svg" p-id="28370"
     width="128" height="128">
    <defs>
        <style type="text/css"></style>
    </defs>
    <path d="M419.2 134.4h3.2c3.2 6.4 12.8 22.4 19.2 32 3.2 9.6 9.6 16 12.8 25.6v3.2l3.2 3.2 32 48 19.2 28.8h422.4c16-3.2 28.8 12.8 28.8 28.8v556.8c0 16-12.8 28.8-28.8 28.8H92.8c-16 0-28.8-12.8-28.8-28.8V163.2c0-16 12.8-28.8 28.8-28.8h326.4m0-64H92.8C41.6 70.4 0 112 0 163.2v697.6c0 51.2 41.6 92.8 92.8 92.8h838.4c51.2 0 92.8-41.6 92.8-92.8V304c0-51.2-41.6-92.8-92.8-92.8H544l-32-44.8c-35.2-64-41.6-96-92.8-96z"
          p-id="28371" fill="#8a8a8a"></path>
    <path d="M736 544h-192v-192h-64v192H288v64h192v192h64v-192h192z"
          p-id="28372" fill="#8a8a8a"></path>
</svg>