<?xml version="1.0" standalone="no"?><!DOCTYPE svg PUBLIC "-//W3C//DTD SVG 1.1//EN" "http://www.w3.org/Graphics/SVG/1.1/DTD/svg11.dtd"><svg t="1603597378057" class="icon" viewBox="0 0 1024 1024" version="1.1" xmlns="http://www.w3.org/2000/svg" p-id="3047" xmlns:xlink="http://www.w3.org/1999/xlink" width="128" height="128"><defs><style type="text/css"></style></defs><path d="M930.909091 977.454545H93.090909a93.090909 93.090909 0 0 1-93.090909-93.090909V139.636364a93.090909 93.090909 0 0 1 93.090909-93.090909h837.818182a93.090909 93.090909 0 0 1 93.090909 93.090909v744.727272a93.090909 93.090909 0 0 1-93.090909 93.090909z m46.545454-837.818181a46.545455 46.545455 0 0 0-46.545454-46.545455H93.090909a46.545455 46.545455 0 0 0-46.545454 46.545455v744.727272a46.545455 46.545455 0 0 0 46.545454 46.545455h837.818182a46.545455 46.545455 0 0 0 46.545454-46.545455V139.636364z m-628.363636 139.636363l418.909091 232.727273-418.909091 232.727273V279.272727z" p-id="3048" fill="#8a8a8a"></path></svg>