<?xml version="1.0" standalone="no"?><!DOCTYPE svg PUBLIC
        "-//W3C//DTD SVG 1.1//EN"
        "http://www.w3.org/Graphics/SVG/1.1/DTD/svg11.dtd">
<svg t="1602839329779" class="icon" viewBox="0 0 1024 1024" version="1.1"
     xmlns="http://www.w3.org/2000/svg" p-id="8117"
     width="128" height="128">
    <defs>
        <style type="text/css"></style>
    </defs>
    <path d="M856.485158 861.677245C936.891155 763.867808 981.6 641.388618 981.6 512.12121 981.6 382.738797 936.811245 260.158162 856.27481 162.309447 846.166733 150.028516 828.016854 148.26707 815.735923 158.375148 803.454992 168.483225 801.693546 186.633103 811.801622 198.914034 883.927587 286.544347 924 396.216998 924 512.12121 924 627.922461 883.99911 737.504278 811.990083 825.099274 801.889354 837.38625 803.661658 855.535069 815.948634 865.635798 828.23561 875.736528 846.384432 873.964221 856.485158 861.677245L856.485158 861.677245Z"
          p-id="8118" fill="#d81e06"></path>
    <path d="M164.753057 162.322754C84.34706 260.132193 39.638216 382.611382 39.638216 511.87879 39.638216 641.261203 84.426972 763.841837 164.963407 861.690554 175.071485 873.971485 193.221363 875.732931 205.502293 865.624851 217.783225 855.516774 219.54467 837.366896 209.436593 825.085965 137.310628 737.455654 97.238216 627.783002 97.238216 511.87879 97.238216 396.077539 137.239105 286.49572 209.248134 198.900727 219.348863 186.613751 217.576558 168.46493 205.289582 158.364202 193.002606 148.263474 174.853786 150.035778 164.753057 162.322754L164.753057 162.322754Z"
          p-id="8119" fill="#d81e06"></path>
    <path d="M334.643498 319.711013C290.431204 373.492819 265.838216 440.864928 265.838216 511.936358 265.838216 583.07103 290.475155 650.498925 334.759146 704.302294 344.867222 716.583226 363.017101 718.344669 375.298032 708.236592 387.578963 698.128515 389.340406 679.978637 379.23233 667.697706 343.35881 624.112739 323.438218 569.592829 323.438218 511.936358 323.438218 454.331088 343.323248 399.856349 379.138576 356.288986 389.239306 344.00201 387.467002 325.85319 375.180022 315.752461 362.893046 305.651733 344.744227 307.424037 334.643498 319.711013L334.643498 319.711013Z"
          p-id="8120" fill="#d81e06"></path>
    <path d="M679.35224 704.288986C723.564534 650.507181 748.15752 583.135072 748.15752 512.063642 748.15752 440.92897 723.520582 373.501075 679.236592 319.697707 669.128515 307.416775 650.978637 305.65533 638.697706 315.763407 626.416774 325.871485 624.655331 344.021363 634.763408 356.302294 670.636928 399.887261 690.55752 454.407171 690.55752 512.063642 690.55752 569.668912 670.67249 624.143651 634.857162 667.711014 624.756432 679.99799 626.528736 698.14681 638.815712 708.247539 651.102691 718.348266 669.25151 716.575962 679.35224 704.288986L679.35224 704.288986Z"
          p-id="8121" fill="#d81e06"></path>
</svg>