<?xml version="1.0" standalone="no"?><!DOCTYPE svg PUBLIC
        "-//W3C//DTD SVG 1.1//EN"
        "http://www.w3.org/Graphics/SVG/1.1/DTD/svg11.dtd">
<svg t="1602656500462" class="icon" viewBox="0 0 1024 1024" version="1.1"
     xmlns="http://www.w3.org/2000/svg" p-id="17364"
     width="128" height="128">
    <defs>
        <style type="text/css"></style>
    </defs>
    <path d="M929.51073 0h-659.227468A94.599142 94.599142 0 0 0 175.793991 94.48927V219.742489H94.48927A94.599142 94.599142 0 0 0 0 314.23176v615.27897a94.599142 94.599142 0 0 0 94.48927 94.48927h835.02146a94.599142 94.599142 0 0 0 94.48927-94.48927v-835.02146A94.599142 94.599142 0 0 0 929.51073 0z m-835.02146 966.866953a37.411159 37.411159 0 0 1-37.356223-37.356223v-615.27897a37.411159 37.411159 0 0 1 37.356223-37.356224H175.793991v652.635194a86.303863 86.303863 0 0 0 8.460086 37.356223z m872.377683-37.356223a37.411159 37.411159 0 0 1-37.356223 37.356223h-659.227468a37.411159 37.411159 0 0 1-37.356223-37.356223v-835.02146a37.411159 37.411159 0 0 1 37.356223-37.356223h659.227468a37.411159 37.411159 0 0 1 37.356223 37.356223z"
          p-id="17365" fill="#d81e06"></path>
    <path d="M825.023176 312.08927L649.339056 285.665236a32.961373 32.961373 0 0 0-6.097854-0.549356A27.467811 27.467811 0 0 0 615.27897 307.639485v254.846352a212.106438 212.106438 0 0 0-82.403434-32.961373 215.84206 215.84206 0 0 0-38.454935-3.406009c-71.416309 0-130.63691 37.905579-140.30558 90.149356a93.390558 93.390558 0 0 0 17.030043 70.812017c24.226609 35.048927 69.933047 61.527897 122.451503 70.921889a230.180258 230.180258 0 0 0 36.696995 3.021459c70.097854 0 128.549356-34.00515 142.228326-83.117597V341.754506l141.733906 22.908155a33.565665 33.565665 0 0 0 6.097854 0.549356 27.083262 27.083262 0 0 0 27.852361-21.095279 25.984549 25.984549 0 0 0-4.834335-20.32618 30.049785 30.049785 0 0 0-18.348498-11.701288zM615.27897 662.413734c-4.779399 25.6-39.224034 42.849785-85.699571 42.849785a193.043777 193.043777 0 0 1-27.467811-1.977682c-36.751931-6.812017-68.834335-24.501288-83.721888-46.200858a39.553648 39.553648 0 0 1-7.690988-29.610301c4.779399-25.6 39.27897-42.849785 85.699571-42.849785a193.043777 193.043777 0 0 1 27.467811 1.977682c57.957082 10.712446 97.290987 43.344206 91.412876 75.811159z"
          p-id="17366" fill="#d81e06"></path>
</svg>