<?xml version="1.0" standalone="no"?><!DOCTYPE svg PUBLIC
        "-//W3C//DTD SVG 1.1//EN"
        "http://www.w3.org/Graphics/SVG/1.1/DTD/svg11.dtd">
<svg t="1602840427885" class="icon" viewBox="0 0 1496 1024" version="1.1"
     xmlns="http://www.w3.org/2000/svg" p-id="12847"
     width="187" height="128">
    <defs>
        <style type="text/css"></style>
    </defs>
    <path d="M1496.728768 905.449311V118.12955A118.340119 118.340119 0 0 0 1378.599219 0H118.12955A118.340119 118.340119 0 0 0 0 118.12955V905.449311a118.340119 118.340119 0 0 0 115.602714 118.12955h1265.52334A118.340119 118.340119 0 0 0 1496.728768 905.449311zM78.753033 905.449311V118.12955a39.376517 39.376517 0 0 1 39.376517-39.376517h1260.469669a39.376517 39.376517 0 0 1 39.376516 39.376517V905.449311a39.376517 39.376517 0 0 1-39.376516 39.376517H118.12955A39.376517 39.376517 0 0 1 78.753033 905.449311z"
          p-id="12848" fill="#d81e06"></path>
    <path d="M549.586675 787.530331a86.544109 86.544109 0 0 0 87.386387-2.737405l315.854411-200.462266a85.9124 85.9124 0 0 0 0-144.87189l-315.854411-200.251696a84.227843 84.227843 0 0 0-46.114744-13.476455A85.491261 85.491261 0 0 0 505.367057 311.643019v400.082253a85.9124 85.9124 0 0 0 44.219618 75.805059z m42.113921-475.887312l315.854411 200.251696-316.696689 200.462266z"
          p-id="12849" fill="#d81e06"></path>
</svg>