<?xml version="1.0" standalone="no"?><!DOCTYPE svg PUBLIC "-//W3C//DTD SVG 1.1//EN" "http://www.w3.org/Graphics/SVG/1.1/DTD/svg11.dtd"><svg t="1605689327131" class="icon" viewBox="0 0 1024 1024" version="1.1" xmlns="http://www.w3.org/2000/svg" p-id="32573" data-spm-anchor-id="a313x.7781069.0.i13" xmlns:xlink="http://www.w3.org/1999/xlink" width="128" height="128"><defs><style type="text/css"></style></defs><path d="M242.728 977.112a50.536 50.536 0 0 1-45.208-27.672 50.344 50.344 0 0 1-4.904-31.016l41.648-263.536a18.776 18.776 0 0 0-5.256-16.176L40.432 450.048c-19.824-19.568-20.024-51.744-0.392-71.64a51 51 0 0 1 28.408-14.496l263.52-41.648a18.824 18.824 0 0 0 13.84-9.864L466.776 74.608a50.504 50.504 0 0 1 45.216-27.704c7.936 0 15.888 1.912 23 5.528a50.544 50.544 0 0 1 22.16 22.16l121.096 237.96a18.744 18.744 0 0 0 13.76 9.984l263.6 41.656a50.352 50.352 0 0 1 33.128 20.112 50.344 50.344 0 0 1 9.232 37.704 50.992 50.992 0 0 1-14.488 28.392L794.776 638.72a18.72 18.72 0 0 0-5.248 16.16l41.656 263.576a50.36 50.36 0 0 1-9.032 37.728 50.424 50.424 0 0 1-33.088 20.312 51.288 51.288 0 0 1-31.016-4.912l-237.736-121.216a19.128 19.128 0 0 0-16.768 0.032l-237.816 121.192a51.12 51.12 0 0 1-23 5.52zM512 78.888a18.64 18.64 0 0 0-16.704 10.216L374.248 327.04a51.008 51.008 0 0 1-37.352 26.824L73.368 395.512c-4.08 0.624-7.704 2.48-10.552 5.368a18.752 18.752 0 0 0 0.168 26.464l188.648 188.728a50.864 50.864 0 0 1 14.24 43.816l-41.656 263.552c-0.624 3.888 0.024 7.952 1.808 11.456 4.568 8.944 16.152 12.792 25.176 8.168l237.88-121.224a51.488 51.488 0 0 1 45.704-0.04l237.808 121.256a18.72 18.72 0 0 0 23.656-5.68 18.56 18.56 0 0 0 3.328-13.928L757.92 659.872a50.84 50.84 0 0 1 14.256-43.824l188.752-188.368c2.904-2.872 4.816-6.592 5.408-10.528a18.592 18.592 0 0 0-3.4-13.928 18.592 18.592 0 0 0-12.248-7.416l-263.68-41.672a50.864 50.864 0 0 1-37.272-27.08L528.64 89.112A18.84 18.84 0 0 0 512 78.888z" fill="#d81e06" p-id="32574"></path></svg>