<?xml version="1.0" standalone="no"?><!DOCTYPE svg PUBLIC "-//W3C//DTD SVG 1.1//EN" "http://www.w3.org/Graphics/SVG/1.1/DTD/svg11.dtd"><svg t="1602292582923" class="icon" viewBox="0 0 1024 1024" version="1.1" xmlns="http://www.w3.org/2000/svg" p-id="3308" xmlns:xlink="http://www.w3.org/1999/xlink" width="128" height="128"><defs><style type="text/css"></style></defs><path d="M937.6 569.6c-9.6 0-19.2 9.6-19.2 19.2-9.6 150.4-134.4 268.8-288 268.8h-227.2c-156.8 0-291.2-121.6-297.6-278.4-6.4-163.2 124.8-300.8 288-300.8h304v99.2c0 12.8 12.8 22.4 25.6 16l201.6-121.6c9.6-6.4 9.6-22.4 0-28.8l-201.6-121.6c-12.8-6.4-25.6 0-25.6 16v99.2h-294.4C217.6 240 60.8 390.4 64 576c3.2 179.2 150.4 323.2 329.6 323.2h233.6c176 0 316.8-137.6 329.6-307.2 3.2-12.8-6.4-22.4-19.2-22.4z" fill="#8a8a8a" p-id="3309"></path></svg>