<?xml version="1.0" standalone="no"?><!DOCTYPE svg PUBLIC "-//W3C//DTD SVG 1.1//EN" "http://www.w3.org/Graphics/SVG/1.1/DTD/svg11.dtd"><svg t="1604751237305" class="icon" viewBox="0 0 1024 1024" version="1.1" xmlns="http://www.w3.org/2000/svg" p-id="12499" xmlns:xlink="http://www.w3.org/1999/xlink" width="128" height="128"><defs><style type="text/css"></style></defs><path d="M296.4 420.6l-13.5 43.2-197.7-62 13.5-43.2 197.7 62z m-13.5 139.6l13.5 43.2-197.7 62-13.5-43.2 197.7-62z m73.6 121l36.1 27.2-122.1 162.4-36.1-27.2 122.1-162.4z m132.9 56.7h45.2v200.8h-45.2V737.9z m142-29.6l36.1-27.2 122.2 162.4-36.1 27.2-122.2-162.4z m96.2-104.9l13.5-43.2 197.7 62-13.5 43.2-197.7-62z m13.5-139.6l-13.5-43.2 197.7-62 13.5 43.2-197.7 62z m-73.6-121l-36.1-27.2 122.2-162.4 36.1 27.2-122.2 162.4z m-132.9-56.7h-45.2V85.3h45.2v200.8z m-142 29.6l-36.1 27.2-122.2-162.5 36.1-27.2 122.2 162.5z" p-id="12500" fill="#d81e06"></path></svg>