<?xml version="1.0" standalone="no"?><!DOCTYPE svg PUBLIC
        "-//W3C//DTD SVG 1.1//EN"
        "http://www.w3.org/Graphics/SVG/1.1/DTD/svg11.dtd">
<svg t="1604751115320" class="icon" viewBox="0 0 1024 1024" version="1.1"
     xmlns="http://www.w3.org/2000/svg" p-id="9682"
     width="128" height="128">
    <defs>
        <style type="text/css"></style>
    </defs>
    <path d="M538.112 259.584c-71.68 0-129.536-57.856-129.536-129.536S466.944 0.512 538.112 0.512c71.68 0 129.536 57.856 129.536 129.536s-57.856 129.536-129.536 129.536zM262.144 362.496c-65.536 0-118.272-53.248-118.272-118.272 0-65.536 53.248-118.272 118.272-118.272C327.68 125.952 380.416 179.2 380.416 244.224c0 65.024-52.736 118.272-118.272 118.272z m-117.248 267.776c-57.856 0-104.448-46.592-104.448-104.448 0-57.344 46.592-104.448 104.448-104.448s104.448 46.592 104.448 104.448c0 57.856-47.104 104.448-104.448 104.448zM262.144 896c-48.64 0-88.576-39.936-88.576-88.576s39.936-88.576 88.576-88.576 88.576 39.424 88.576 88.576c0 48.64-39.936 88.576-88.576 88.576z m275.968 101.376c-42.496 0-77.312-34.816-77.312-77.312s34.816-77.312 77.312-77.312 77.312 34.816 77.312 77.312-34.816 77.312-77.312 77.312z m280.064-131.072c-34.304 0-62.464-28.16-62.464-62.464 0-34.304 28.16-62.464 62.464-62.464 34.304 0 62.464 28.16 62.464 62.464s-28.16 62.976-62.464 62.464z m114.688-288.768c-28.16 0-51.2-23.04-51.2-51.2s23.04-51.2 51.2-51.2 51.2 23.04 51.2 51.2-22.528 51.2-51.2 51.2z m-154.112-329.728c-0.512 22.016 16.384 40.448 38.4 40.96 22.016 0.512 40.448-16.384 40.96-38.4v-2.56c0-22.016-17.92-39.936-39.936-39.936-22.016 0.512-39.936 17.92-39.424 39.936z"
          p-id="9683" fill="#d81e06"></path>
</svg>