<?xml version="1.0" standalone="no"?><!DOCTYPE svg PUBLIC "-//W3C//DTD SVG 1.1//EN" "http://www.w3.org/Graphics/SVG/1.1/DTD/svg11.dtd">
<svg t="1602234954894" class="icon" viewBox="0 0 1169 1024" version="1.1"
     xmlns="http://www.w3.org/2000/svg" p-id="4157" width="128"
     height="128">
    <defs><style type="text/css"></style></defs>
    <path d="M1066.666667 102.4c-136.533333-128-341.333333-136.533333-477.866667-8.533333-145.066667-128-349.866667-119.466667-486.4 8.533333-136.533333 136.533333-136.533333 349.866667 0 486.4l401.066667 401.066667c42.666667 42.666667 110.933333 42.666667 153.6 0l401.066666-401.066667c145.066667-128 145.066667-349.866667 8.533334-486.4z m-51.2 435.2L614.4 938.666667c-17.066667 17.066667-34.133333 17.066667-51.2 0L153.6 537.6C42.666667 435.2 42.666667 256 153.6 153.6 256 51.2 426.666667 51.2 537.6 145.066667l51.2 42.666666 51.2-42.666666C750.933333 42.666667 913.066667 51.2 1024 153.6c93.866667 110.933333 93.866667 281.6-8.533333 384z"
          fill="#bfbfbf" p-id="4158"></path>
</svg>